<svg xmlns="http://www.w3.org/2000/svg" viewBox="0 0 339.56 100"><defs><style>.a{fill:red;}</style></defs><title>bkfx Logo FINAL [Red]</title><path class="a" d="M55.1,34.28A33.65,33.65,0,0,1,67.44,47,36.23,36.23,0,0,1,72,65a35.79,35.79,0,0,1-4.65,18.07A33.86,33.86,0,0,1,54.59,95.85a35.45,35.45,0,0,1-18,4.65,35.46,35.46,0,0,1-18-4.65A33.86,33.86,0,0,1,5.86,83.07,35.88,35.88,0,0,1,1.22,65V35.1A3.66,3.66,0,0,1,1.35,34V5.46A4.94,4.94,0,0,1,2.68,1.9,4.6,4.6,0,0,1,6.18.5a4.79,4.79,0,0,1,5,5V42.74a31.56,31.56,0,0,1,11.32-9.61,33,33,0,0,1,15.15-3.5A33.6,33.6,0,0,1,55.1,34.28ZM49.76,88.09A25.08,25.08,0,0,0,59,78.55,27.3,27.3,0,0,0,62.42,65,27.33,27.33,0,0,0,59,51.45,24.65,24.65,0,0,0,49.76,42a25.88,25.88,0,0,0-13.17-3.43A24.67,24.67,0,0,0,19.47,44.9a25.57,25.57,0,0,0-8.33,16.29,1.48,1.48,0,0,1-.12.63A27.05,27.05,0,0,0,10.89,65a27.3,27.3,0,0,0,3.37,13.55,25.08,25.08,0,0,0,22.33,13A25.35,25.35,0,0,0,49.76,88.09Z" transform="translate(-1.22 -0.5)"/><path class="a" d="M157.58,95.79a4.45,4.45,0,0,1-1.79,3.43,5,5,0,0,1-3,1.15,4.2,4.2,0,0,1-3.44-1.78L123.1,66.4l-9.54,8.65V95a4.84,4.84,0,1,1-9.67,0V5.33a4.73,4.73,0,0,1,1.33-3.5,5.27,5.27,0,0,1,7,0,4.74,4.74,0,0,1,1.34,3.5V63.22l35.87-32.44a4.46,4.46,0,0,1,3-1.28A4,4,0,0,1,155.67,31a5,5,0,0,1,1.4,3.06,4.09,4.09,0,0,1-1.66,3.18L130,60.29l26.46,32.58A4.24,4.24,0,0,1,157.58,95.79Z" transform="translate(-1.22 -0.5)"/><path class="a" d="M207.39,15q-4.27,5.61-4.27,14.89v2.92h15.27A4.38,4.38,0,0,1,221.63,34a4.22,4.22,0,0,1,1.21,3.12,4,4,0,0,1-1.21,3,4.34,4.34,0,0,1-3.24,1.2H203.12V94.9a4.9,4.9,0,0,1-1.34,3.63A5,5,0,0,1,198,99.86a4.58,4.58,0,0,1-3.38-1.33,4.93,4.93,0,0,1-1.33-3.63V41.33h-8.15a4.35,4.35,0,0,1-3.24-1.2,4,4,0,0,1-1.21-3A4.22,4.22,0,0,1,181.94,34a4.4,4.4,0,0,1,3.24-1.21h8.15V30.39q0-13.6,7-21.75T220,.5a5.12,5.12,0,0,1,3.56,1.27A4.1,4.1,0,0,1,225,5a4.1,4.1,0,0,1-1.4,3.18A5.08,5.08,0,0,1,220,9.41Q211.64,9.41,207.39,15Z" transform="translate(-1.22 -0.5)"/><path class="a" d="M301.59,95.67a3.85,3.85,0,0,1-1.33,3,4.33,4.33,0,0,1-3,1.21,5.71,5.71,0,0,1-2.55-.51,5.26,5.26,0,0,1-1.9-1.78L272,71,250.32,98.33a4,4,0,0,1-3.43,1.53,4.26,4.26,0,0,1-4.46-4.33,4.91,4.91,0,0,1,1.28-3.43l22-27.48L244.85,38.15a4.86,4.86,0,0,1-1.27-3.42,4.6,4.6,0,0,1,1.14-3.19A4.23,4.23,0,0,1,248,30.27a5,5,0,0,1,3.69,1.53l20.49,26.33,20.23-25.57a5.18,5.18,0,0,1,4.19-2.29,4.27,4.27,0,0,1,3.25,1.27,4.32,4.32,0,0,1,1.21,3.06,5.85,5.85,0,0,1-1.41,3.68L278.56,64.49l21.63,27.74A5.59,5.59,0,0,1,301.59,95.67Z" transform="translate(-1.22 -0.5)"/><path class="a" d="M328.18,98.34a7.46,7.46,0,0,1,.07-10.57,7.21,7.21,0,0,1,5.15-2.16,7,7,0,0,1,5.21,2.23,7.31,7.31,0,0,1,2.17,5.28,7.38,7.38,0,0,1-12.6,5.22Z" transform="translate(-1.22 -0.5)"/></svg>